<svg xmlns="http://www.w3.org/2000/svg" xmlns:xlink="http://www.w3.org/1999/xlink" width="500" zoomAndPan="magnify" viewBox="0 0 375 374.999991" height="500" preserveAspectRatio="xMidYMid meet" version="1.0"><defs><clipPath id="d5eb9b9293"><path d="M 23 2.832031 L 375 2.832031 L 375 371.832031 L 23 371.832031 Z M 23 2.832031 " clip-rule="nonzero"/></clipPath></defs><g clip-path="url(#d5eb9b9293)"><path fill="#03fa6e" d="M 185.363281 2.824219 C 187.714844 5.035156 190.152344 7.109375 192.335938 9.425781 C 197.359375 14.738281 203.277344 19.03125 208.613281 23.953125 C 212.410156 27.464844 215.824219 31.777344 218.199219 36.359375 C 224.945312 49.367188 231.074219 62.695312 237.4375 75.902344 C 237.816406 76.691406 238.296875 77.484375 238.441406 78.324219 C 239.820312 86.234375 244.222656 93.023438 246.617188 100.566406 C 248.46875 106.394531 251.046875 111.988281 253.378906 117.882812 L 258.140625 117.882812 L 258.230469 117.714844 L 258.214844 117.703125 L 258.304688 117.585938 C 258.042969 117.214844 257.9375 116.84375 257.867188 116.417969 C 257.863281 116.023438 258.3125 115.632812 258.5625 115.238281 C 258.769531 115.625 259.207031 116.070312 259.128906 116.386719 C 258.984375 116.863281 258.609375 117.207031 258.304688 117.585938 L 258.453125 117.882812 C 258.382812 117.832031 258.3125 117.777344 258.246094 117.726562 L 258.453125 117.882812 L 258.140625 117.882812 C 255.183594 122.992188 257.683594 126.96875 260.972656 131.0625 C 263.808594 130.023438 264.777344 127.824219 265.464844 125.636719 C 268.1875 117 272.410156 108.980469 275.023438 100.230469 C 277.757812 91.085938 280.359375 81.578125 286.53125 73.347656 C 289.6875 72.667969 293.105469 71.9375 296.289062 71.253906 C 301.09375 66.464844 301.257812 58.554688 308.035156 55.058594 C 309.257812 57.574219 310.113281 59.671875 311.265625 61.59375 C 312.316406 63.34375 313.71875 64.882812 314.917969 66.550781 C 323.140625 78 327.097656 91.167969 330.242188 104.65625 C 330.308594 104.941406 330.273438 105.253906 330.363281 105.527344 C 335.613281 121.472656 336.734375 138.308594 340.984375 154.476562 C 342.988281 162.101562 344.808594 169.785156 346.5625 177.472656 C 348.445312 185.710938 350.273438 194.121094 352.988281 202.09375 C 355.988281 210.914062 357.628906 220.28125 362.550781 228.476562 C 364.144531 231.125 364.570312 234.46875 365.523438 237.476562 C 368.78125 238.59375 371.375 237.296875 374.113281 235.902344 C 374.851562 238.078125 372.597656 238.691406 372.027344 240.09375 C 371.488281 241.429688 371.105469 242.828125 370.539062 244.542969 C 371.851562 244.765625 372.855469 244.941406 374.3125 245.191406 C 374.445312 246.472656 374.980469 247.972656 374.667969 249.269531 C 373.300781 254.960938 371.6875 260.59375 370.171875 266.25 C 369.265625 269.617188 367.609375 273.003906 367.664062 276.363281 C 367.738281 280.902344 365.902344 284.128906 363.34375 287.484375 C 352.214844 302.074219 339.601562 314.964844 323.210938 323.75 C 315.453125 327.910156 307.835938 332.332031 300.078125 336.5 C 298.035156 337.601562 295.785156 338.527344 293.519531 338.972656 C 282.53125 341.128906 272.332031 345.769531 261.636719 348.847656 C 250.089844 352.175781 238.621094 355.769531 227.101562 359.1875 C 225.136719 359.773438 223.066406 360.449219 221.070312 360.378906 C 217.128906 360.234375 213.710938 361.285156 210.089844 362.808594 C 206.097656 364.488281 201.601562 365.03125 197.28125 365.847656 C 188.628906 367.488281 179.972656 369.15625 171.269531 370.484375 C 162.496094 371.824219 153.722656 371.609375 145.140625 369.34375 C 144.027344 367.472656 144.675781 364.839844 141.261719 364.429688 C 133.695312 363.519531 126.207031 361.945312 118.679688 360.695312 C 112.886719 359.734375 107.085938 358.84375 101.28125 357.953125 C 98.675781 357.554688 96.046875 356.964844 94.054688 359.628906 C 93.667969 360.144531 92.464844 360.289062 91.671875 360.222656 C 87.578125 359.871094 83.46875 359.554688 79.410156 358.917969 C 74.492188 358.148438 69.59375 357.1875 64.734375 356.097656 C 60.125 355.0625 55.667969 353.597656 52.191406 350.09375 C 48.953125 346.828125 49.074219 344.933594 53.316406 340.175781 C 55.773438 341.058594 58.4375 342.015625 61.222656 343.015625 C 57.632812 337.933594 57.632812 337.933594 56.765625 330.375 C 61 326.59375 65.078125 322.425781 62.75 315.023438 C 65.179688 315.273438 66.847656 315.363281 68.488281 315.628906 C 78.0625 317.171875 87.601562 318.933594 97.203125 320.265625 C 103.660156 321.164062 103.695312 320.90625 108.777344 326.628906 C 107.1875 330.105469 103.226562 327.496094 101.210938 329.3125 C 100.464844 331.167969 101.640625 331.707031 102.675781 331.972656 C 105.398438 332.664062 108.730469 331.863281 110.222656 335.375 C 110.386719 335.757812 111.257812 336.03125 111.796875 336.027344 C 117.945312 335.980469 124.097656 336.003906 130.230469 335.679688 C 131.660156 335.453125 132.707031 334.316406 133.824219 333.484375 L 133.773438 333.472656 L 133.707031 333.5 L 133.660156 333.496094 L 133.886719 333.433594 L 133.890625 333.433594 L 133.824219 333.484375 C 146.558594 336.238281 159.5625 337.179688 172.5625 337.238281 C 166.851562 332.941406 166.859375 332.851562 164.4375 332.667969 C 161.308594 332.429688 158.164062 332.359375 153.117188 332.128906 C 155.457031 331.339844 157.796875 330.550781 160.132812 329.742188 L 160.160156 329.578125 C 159.503906 328.59375 158.882812 327.640625 160.53125 327.402344 L 160.558594 327.242188 C 159.394531 326.679688 158.222656 326.167969 156.988281 325.792969 C 155.707031 325.5 154.3125 325.679688 151.554688 323.617188 C 160.007812 323.886719 166.492188 323.96875 172.957031 324.347656 C 176.359375 324.605469 179.09375 324.332031 182.101562 322.632812 L 182.109375 322.605469 C 182.117188 322.617188 182.117188 322.609375 182.117188 322.621094 C 182.117188 322.613281 182.117188 322.617188 182.121094 322.609375 L 182.140625 322.621094 L 182.117188 322.621094 L 182.101562 322.632812 C 181.601562 324.210938 181.847656 323.425781 181.355469 324.984375 C 167.472656 326.414062 174.398438 325.699219 160.578125 327.125 C 160.636719 327.183594 160.601562 327.148438 160.679688 327.226562 L 160.8125 327.359375 L 160.808594 327.359375 L 160.816406 327.363281 L 160.53125 327.402344 C 160.289062 328.851562 160.414062 328.128906 160.160156 329.578125 L 160.238281 329.707031 C 160.269531 329.671875 160.085938 329.894531 160.109375 329.871094 L 160.109375 329.867188 L 160.085938 329.894531 C 184.820312 329.554688 208.734375 324.40625 232.34375 317.546875 C 238.492188 315.761719 244.542969 313.621094 250.605469 311.542969 C 253.585938 310.523438 256.320312 308.808594 259.78125 310.273438 C 261.007812 310.453125 262.425781 309.246094 263.53125 308.71875 L 263.53125 308.621094 C 263.566406 308.652344 263.542969 308.632812 263.601562 308.6875 L 263.605469 308.691406 C 263.605469 308.691406 263.609375 308.691406 263.609375 308.691406 C 263.605469 308.691406 263.601562 308.691406 263.597656 308.6875 L 263.53125 308.71875 L 263.53125 314.074219 C 265.523438 313.6875 267.21875 313.523438 268.804688 313.015625 C 273.808594 311.417969 278.75 309.632812 283.757812 308.046875 C 285.410156 307.523438 287.410156 306.703125 288.863281 307.191406 C 293.535156 308.757812 297.402344 306.03125 300.851562 305.808594 C 304.289062 304.226562 300.488281 301.65625 302.824219 300.164062 C 304.257812 299.246094 305.140625 297.5 306.527344 296.472656 C 308.144531 295.277344 310.039062 294.460938 312.445312 293.132812 C 310.042969 292.125 307.363281 295.289062 305.585938 292.972656 C 305.734375 292.25 305.476562 291.328125 306.019531 290.742188 C 307.695312 289.59375 309.550781 288.703125 311.363281 287.765625 C 316.300781 285.207031 321.207031 282.582031 326.214844 280.164062 C 328.546875 279.039062 331.101562 277.539062 333.527344 277.59375 C 338.304688 277.699219 341.289062 275.84375 343.328125 271.734375 C 343.777344 270.824219 344.890625 270.238281 346.324219 268.925781 C 342.351562 268.550781 339.976562 270.402344 337.457031 271.570312 C 324.191406 277.703125 311.03125 284.058594 297.699219 290.042969 C 292.449219 292.355469 286.957031 294.046875 281.539062 295.917969 L 281.441406 296.171875 L 281.261719 296.011719 L 281.539062 295.917969 C 281.800781 295.289062 281.882812 294.542969 282.460938 294.121094 C 284.832031 292.953125 287.292969 291.957031 289.765625 291.019531 C 306.015625 284.863281 321.078125 276.199219 336.742188 268.808594 C 337.964844 268.230469 338.921875 267.097656 339.6875 266.476562 C 339.6875 265.558594 339.8125 265.160156 339.667969 264.992188 C 332.898438 257.226562 329.964844 247.726562 327.351562 238.058594 C 324.292969 226.726562 320.660156 215.523438 318.183594 204.070312 C 315.695312 192.554688 312.300781 181.335938 309.097656 170.035156 C 307.988281 166.113281 307.605469 161.957031 307.164062 157.875 C 306.464844 151.449219 305.425781 145.160156 303.480469 138.925781 C 301.566406 132.789062 300.683594 126.328125 299.375 120.003906 C 298.726562 116.863281 298.761719 116.847656 294.8125 114.480469 C 294.371094 114.8125 293.652344 115.070312 293.53125 115.492188 C 292.832031 118.003906 292.875 120.9375 291.550781 123.015625 C 286.671875 130.675781 283.355469 139.355469 276.773438 145.910156 C 272.738281 149.929688 270.085938 154.796875 267.917969 160 C 266.46875 163.476562 265.644531 167.289062 262.117188 169.632812 C 259.90625 171.101562 261.75 175.335938 258.402344 176.078125 C 256.195312 176.566406 253.785156 176.070312 251.535156 176.429688 C 249.808594 176.707031 248.273438 177.6875 247.769531 179.691406 C 247.140625 182.203125 246.410156 184.6875 245.753906 187.074219 C 240.765625 188.175781 240.378906 188.03125 239.183594 185.332031 C 235.40625 176.792969 231.765625 168.1875 227.734375 159.769531 C 223.675781 151.289062 219.457031 142.9375 216.816406 133.832031 C 214.941406 127.378906 212.164062 121.1875 209.855469 114.855469 C 206.546875 105.785156 203.542969 96.59375 199.9375 87.640625 C 197.324219 81.144531 193.792969 75.023438 190.96875 68.605469 C 189.082031 64.316406 184.488281 62.804688 181.980469 59.199219 C 181.808594 58.953125 179.753906 59.523438 179.140625 60.214844 C 178.433594 61.007812 178.273438 62.34375 178.023438 63.476562 C 177.773438 64.605469 178.105469 66.0625 177.507812 66.882812 C 171.417969 75.25 170.824219 85.472656 167.78125 94.863281 C 165.613281 101.558594 162.949219 108.089844 160.59375 114.722656 C 158.734375 119.964844 157.007812 125.257812 155.21875 130.527344 C 155.027344 131.082031 154.878906 131.660156 154.617188 132.179688 C 147.742188 145.894531 144.953125 161.066406 139.246094 175.203125 C 136.734375 181.429688 134.496094 187.769531 132.082031 194.203125 C 133.722656 195.941406 139.0625 194.742188 137.085938 200.460938 C 134.773438 200.574219 132.285156 200.699219 129.871094 200.820312 C 129.664062 203.191406 130.234375 205.886719 129.175781 206.921875 C 126.753906 209.289062 123.664062 211.109375 120.59375 212.632812 C 118.847656 213.496094 116.597656 213.339844 114.355469 213.675781 C 113.125 215.839844 111.75 218.261719 110.222656 220.945312 C 104.808594 219.523438 100.910156 217.148438 98.445312 212.210938 C 96.511719 208.328125 94.183594 204.363281 89.066406 203.78125 C 87.449219 198.390625 85.167969 193.410156 80.53125 189.816406 C 79.320312 190.277344 78.230469 190.6875 76.824219 191.214844 C 71.789062 186.28125 67.667969 180.175781 61.683594 175.917969 C 57.925781 182.0625 57.816406 184.097656 60.40625 189.507812 C 62.589844 194.0625 63.3125 198.5 62.238281 203.847656 C 60.398438 213.011719 58.265625 222.175781 57.785156 231.628906 C 57 247.171875 55.910156 262.707031 54.511719 278.203125 C 53.679688 287.457031 49.660156 295.65625 44.15625 303.089844 C 43.238281 304.324219 41.621094 305.164062 40.371094 304.03125 C 39.472656 303.21875 38.609375 300.757812 39.015625 300.375 C 43.515625 296.078125 40.800781 291.972656 39.011719 287.8125 C 38.589844 286.832031 38.101562 285.882812 37.527344 284.683594 C 31.433594 286.855469 28.039062 291.382812 24.625 298.285156 C 23.679688 294.972656 23.148438 293.976562 23.148438 292.980469 C 23.15625 275.640625 23.21875 258.296875 23.3125 240.957031 C 23.320312 239.507812 23.257812 237.820312 23.933594 236.648438 C 27.855469 229.851562 27.109375 222.550781 26.699219 215.226562 C 26.566406 212.90625 26.949219 210.558594 27.066406 208.222656 C 27.417969 201.183594 28.113281 194.136719 28.003906 187.105469 C 27.890625 179.914062 29.0625 173.046875 31.589844 166.417969 C 32.980469 162.769531 33.703125 159.09375 33.71875 155.238281 C 33.746094 149.421875 34.800781 143.703125 34.109375 137.757812 C 33.710938 134.351562 35.96875 130.527344 37.445312 127.070312 C 37.925781 125.9375 39.648438 124.75 40.898438 124.636719 C 44.832031 124.289062 46.707031 121.722656 47.585938 118.558594 C 48.761719 114.335938 52.085938 111.988281 54.597656 108.664062 C 58.667969 112.390625 62.410156 116.003906 66.355469 119.382812 C 70.585938 123.003906 75.164062 126.230469 79.292969 129.957031 C 83.191406 133.476562 86.625 137.503906 90.414062 141.152344 C 94.433594 145.023438 98.1875 149.449219 102.878906 152.273438 C 107.558594 155.089844 108.480469 161.269531 114.402344 163.226562 C 117.117188 159.800781 120.613281 156.796875 122.011719 152.21875 C 122.953125 149.132812 124.027344 146.078125 124.757812 142.945312 C 126.558594 135.238281 128.269531 127.511719 129.867188 119.761719 C 130.875 114.898438 131.609375 109.976562 132.484375 105.082031 C 132.691406 103.933594 132.78125 102.699219 133.269531 101.667969 C 137.050781 93.632812 138.242188 84.757812 141.324219 76.550781 C 145.230469 66.144531 147.726562 55.191406 153.394531 45.414062 C 156.167969 40.628906 158.074219 35.335938 160.3125 30.246094 C 160.777344 29.199219 161.546875 27.792969 161.199219 26.957031 C 159.375 22.578125 162.03125 19.285156 163.5625 15.296875 C 166.660156 16.136719 169.699219 16.960938 173.386719 17.960938 C 173.59375 16.511719 174.214844 15.101562 173.878906 13.980469 C 172.96875 10.921875 175.96875 9.273438 176.152344 6.414062 C 177.742188 5.957031 179.453125 5.570312 181.085938 4.957031 C 182.414062 4.460938 183.640625 3.699219 185.363281 2.824219 Z M 154.636719 366.835938 L 153.988281 367.085938 L 154.769531 367.292969 Z M 111.144531 348.824219 C 111.09375 349.0625 111.140625 348.851562 110.917969 349.429688 C 109.921875 351.464844 108.566406 351.996094 106.742188 351.226562 C 105.835938 350.765625 105.835938 350.765625 106.742188 351.226562 C 108.566406 351.996094 109.921875 351.464844 110.917969 349.429688 C 111.140625 348.851562 111.09375 349.0625 111.144531 348.824219 Z M 131.050781 344.042969 C 130.808594 344.992188 130.261719 345.804688 129.933594 346.722656 L 111.59375 346.722656 L 129.933594 346.722656 C 130.5625 344.964844 129.613281 347.519531 130.804688 344.796875 C 130.910156 344.554688 130.96875 344.296875 131.050781 344.042969 Z M 107.867188 342.214844 C 106.988281 343.554688 106.042969 344.851562 105.238281 346.238281 C 106.03125 344.847656 106.976562 343.546875 107.867188 342.214844 Z M 124.523438 344.339844 L 124.609375 344.164062 Z M 124.386719 344.144531 L 124.519531 344.339844 L 124.523438 344.339844 C 124.476562 344.277344 124.429688 344.210938 124.386719 344.144531 Z M 122.21875 344.070312 C 123.3125 344.210938 122.660156 344.132812 124.171875 344.300781 C 123.207031 344.148438 123.855469 344.242188 122.21875 344.070312 Z M 120.378906 343.832031 C 120.625 343.910156 120.394531 343.839844 121.09375 343.925781 Z M 115.574219 341.644531 C 117.332031 342.402344 116.488281 341.96875 118.109375 342.941406 C 116.492188 341.859375 117.34375 342.285156 115.574219 341.644531 Z M 130.210938 341.574219 C 128.910156 341.890625 127.542969 341.75 126.277344 342.25 C 125.925781 342.472656 125.578125 342.695312 125.226562 342.917969 C 126.640625 341.726562 128.5 341.898438 130.210938 341.574219 Z M 109.46875 341.484375 C 109.351562 341.5 109.460938 341.484375 109.152344 341.550781 Z M 114.042969 341.207031 L 114.773438 341.351562 C 114.304688 341.183594 114.550781 341.230469 114.042969 341.207031 Z M 160.578125 327.125 Z M 33.070312 264.238281 C 32.253906 267.300781 31.457031 270.371094 33.070312 275.207031 C 31.703125 271.105469 31.996094 268.355469 33.070312 264.238281 Z M 350.980469 259.222656 C 349.644531 259.492188 348.261719 259.460938 346.90625 259.480469 C 348.039062 259.417969 349.945312 259.535156 350.980469 259.222656 Z M 354.480469 254.398438 C 352.554688 254.921875 350.425781 255.519531 348.992188 257.007812 C 350.460938 255.539062 352.53125 254.921875 354.480469 254.398438 Z M 332.75 202.863281 L 332.75 202.90625 C 335.128906 212.773438 337.5625 222.625 340.082031 232.453125 C 340.261719 233.15625 341.179688 233.664062 341.800781 234.316406 C 342.746094 233.875 342.308594 234.148438 343.117188 233.492188 C 342.308594 234.148438 342.746094 233.875 341.800781 234.316406 C 341.179688 233.667969 340.261719 233.152344 340.082031 232.453125 C 337.5625 222.625 335.128906 212.769531 332.75 202.90625 Z M 339.761719 215.78125 C 340.402344 217.960938 340.128906 217.023438 340.582031 218.59375 C 340.128906 217.023438 340.402344 217.960938 339.761719 215.78125 Z M 115.863281 208.792969 C 115.550781 209.027344 115.761719 208.855469 115.257812 209.339844 C 115.167969 209.460938 115.40625 210.050781 115.511719 210.054688 L 115.621094 210.050781 L 115.511719 210.054688 C 115.40625 210.050781 115.167969 209.460938 115.261719 209.339844 C 115.761719 208.855469 115.550781 209.027344 115.863281 208.792969 Z M 116.242188 208.503906 C 116.742188 209.445312 116.492188 208.972656 116.988281 209.914062 L 116.992188 209.914062 C 116.742188 209.445312 116.492188 208.972656 116.242188 208.503906 Z M 330.628906 196.332031 C 330.976562 196.9375 331.910156 197.210938 332.792969 197.773438 C 331.75 197.179688 332.351562 197.523438 330.988281 196.734375 Z M 332.871094 190.507812 L 333.613281 195.117188 C 333.574219 195.886719 333.652344 195.507812 333.367188 196.257812 C 333.652344 195.507812 333.574219 195.886719 333.613281 195.117188 Z M 108.644531 178.851562 C 109.289062 179.316406 109.230469 180.003906 109.160156 180.6875 C 108.75 181.207031 107.984375 181.367188 107.394531 181.640625 C 107.976562 181.296875 108.71875 181.226562 109.160156 180.6875 C 109.277344 179.863281 109.292969 179.457031 108.644531 178.851562 Z M 105.890625 178.234375 C 105.703125 178.335938 105.847656 178.257812 105.460938 178.476562 C 105.847656 178.257812 105.703125 178.335938 105.890625 178.234375 Z M 328.75 169.632812 L 329.71875 173.496094 L 330.390625 176.566406 L 329.71875 173.496094 Z M 324.027344 171.378906 C 324.351562 172.769531 324.199219 172.15625 324.472656 173.21875 C 324.199219 172.15625 324.351562 172.769531 324.027344 171.378906 Z M 92.59375 166.226562 C 94.558594 168.21875 96.496094 170.25 98.511719 172.199219 C 99.066406 172.667969 98.722656 172.429688 99.59375 172.832031 C 98.722656 172.429688 99.066406 172.667969 98.511719 172.199219 C 94.542969 168.242188 96.515625 170.230469 92.59375 166.226562 Z M 101.574219 171.792969 C 101.148438 172.324219 100.710938 172.753906 100.003906 172.804688 C 100.695312 172.847656 101.160156 172.257812 101.574219 171.792969 Z M 100.976562 161.144531 C 102.085938 162.808594 103.34375 164.3125 104.609375 165.847656 C 106.496094 167.914062 108.617188 169.753906 110.648438 171.679688 C 107.75 168.90625 106.042969 167.496094 104.609375 165.847656 C 103.300781 164.347656 102.167969 162.738281 100.976562 161.144531 Z M 103.476562 169.972656 C 104.957031 170.695312 104.117188 170.300781 106.003906 171.132812 C 106.539062 171.3125 106.21875 171.222656 106.976562 171.355469 C 106.21875 171.222656 106.539062 171.3125 106.003906 171.128906 Z M 99.863281 168.203125 C 100.8125 170.195312 100.433594 169.398438 101.003906 170.59375 C 100.449219 169.433594 100.828125 170.230469 99.863281 168.203125 Z M 99.105469 167.765625 L 99.125 167.777344 Z M 93.816406 164.761719 L 93.484375 164.90625 C 93.972656 164.585938 94.519531 164.828125 95 165.035156 C 96.246094 165.769531 95.726562 165.429688 96.585938 166.019531 C 95.726562 165.425781 96.246094 165.765625 95 165.035156 C 94.347656 164.753906 94.734375 164.875 93.816406 164.761719 Z M 93.941406 160.441406 L 93.777344 160.636719 Z M 98.386719 158.863281 L 98.640625 158.945312 C 98.394531 158.867188 98.480469 158.886719 98.386719 158.863281 Z M 323.0625 141.507812 L 323.167969 141.648438 C 323.839844 142.886719 324.078125 144.445312 324.179688 145.890625 L 324.507812 149.324219 L 324.179688 145.890625 C 324.078125 144.445312 323.839844 142.886719 323.171875 141.648438 Z M 323.0625 141.507812 " fill-opacity="1" fill-rule="nonzero"/></g><path fill="#03fa6e" d="M 59.683594 358.003906 L 59.683594 358.007812 L 59.703125 358.074219 C 62.777344 359.664062 65.851562 361.253906 68.921875 362.847656 C 62.78125 362.609375 62.6875 362.664062 60.894531 361.054688 C 60.148438 360.25 60.011719 359.089844 59.703125 358.074219 L 59.632812 358.039062 L 59.585938 358.066406 L 59.523438 358.0625 L 59.679688 358.007812 Z M 59.683594 358.003906 " fill-opacity="1" fill-rule="nonzero"/><path fill="#03fa6e" d="M 57.070312 357.886719 C 58.714844 358.015625 57.898438 357.957031 59.523438 358.0625 C 58.101562 358.578125 58.847656 358.339844 57.289062 358.761719 C 57.027344 358.800781 56.667969 358.234375 56.351562 357.945312 C 56.59375 357.921875 56.832031 357.871094 57.070312 357.886719 Z M 57.070312 357.886719 " fill-opacity="1" fill-rule="nonzero"/><path fill="#03fa6e" d="M 126.578125 331.699219 C 128.523438 333.507812 131.203125 333.28125 133.660156 333.496094 C 131.242188 334.214844 129.507812 334.292969 127.421875 332.710938 C 127.117188 332.480469 126.910156 332.144531 126.65625 331.863281 Z M 126.578125 331.699219 " fill-opacity="1" fill-rule="nonzero"/><path fill="#03fa6e" d="M 126.582031 331.71875 C 126.578125 331.699219 126.65625 331.863281 126.65625 331.863281 L 126.402344 331.910156 C 126.238281 332.09375 126.351562 331.980469 126.027344 332.214844 C 125.867188 332.273438 125.636719 332.144531 125.4375 332.101562 L 126.402344 331.910156 Z M 126.582031 331.71875 " fill-opacity="1" fill-rule="nonzero"/><path fill="#03fa6e" d="M 125.210938 320.558594 C 130.792969 321.074219 128.386719 320.742188 132.457031 321.402344 C 133.890625 321.667969 135.292969 322.121094 136.734375 322.332031 C 138.460938 322.589844 140.210938 322.726562 141.957031 322.835938 C 143.691406 322.949219 145.929688 322.683594 146.429688 324.660156 C 146.953125 326.738281 148.445312 327.207031 150.8125 328.015625 C 145.375 331.226562 140.96875 331.472656 136.230469 329.949219 C 132.046875 328.605469 127.675781 328.296875 123.230469 328.785156 C 120.460938 329.089844 117.625 328.84375 114.789062 327.976562 C 118.222656 327.691406 121.660156 327.40625 125 327.128906 C 125.871094 325.621094 126.660156 324.261719 127.472656 322.863281 C 127.292969 322.722656 126.914062 322.148438 126.527344 322.140625 C 122.484375 322.074219 118.441406 322.101562 114.398438 321.808594 C 116.921875 321.167969 117.699219 320.894531 120.757812 320.644531 C 122.238281 320.519531 123.726562 320.585938 125.210938 320.558594 Z M 135.519531 325.027344 L 135.527344 325.042969 Z M 133.9375 324.984375 L 133.996094 325.03125 Z M 135.242188 324.222656 C 135.40625 324.644531 135.351562 324.480469 135.421875 324.703125 C 135.316406 324.328125 135.382812 324.480469 135.242188 324.222656 Z M 133.714844 324.484375 L 133.765625 324.609375 Z M 135.171875 324.144531 L 134.621094 324.242188 Z M 135.171875 324.144531 " fill-opacity="1" fill-rule="nonzero"/><path fill="#03fa6e" d="M 192.117188 321.65625 L 192.273438 321.847656 L 191.953125 321.875 C 191.53125 322.476562 191.179688 322.976562 190.550781 323.359375 C 187.617188 324.3125 184.902344 323.8125 182.140625 322.621094 C 188.777344 322.113281 185.507812 322.363281 191.953125 321.875 Z M 192.117188 321.65625 " fill-opacity="1" fill-rule="nonzero"/><path fill="#03fa6e" d="M 198.371094 319.128906 L 198.476562 319.179688 L 198.480469 319.179688 C 199.148438 319.367188 199.816406 319.558594 200.488281 319.746094 C 200.445312 319.84375 200.402344 319.9375 200.359375 320.039062 C 199.085938 319.472656 199.71875 319.753906 198.464844 319.1875 L 198.316406 319.246094 C 197.753906 320.289062 197.261719 321.800781 195.941406 322.097656 C 194.835938 322.347656 193.570312 321.964844 192.492188 321.742188 C 194.070312 320.988281 193.242188 321.375 194.980469 320.582031 C 197.253906 319.65625 196.140625 320.101562 198.316406 319.246094 Z M 198.371094 319.128906 " fill-opacity="1" fill-rule="nonzero"/><path fill="#03fa6e" d="M 192.125 321.667969 L 192.492188 321.742188 L 192.273438 321.847656 C 192.273438 321.847656 192.117188 321.65625 192.125 321.667969 Z M 192.125 321.667969 " fill-opacity="1" fill-rule="nonzero"/><path fill="#03fa6e" d="M 227.683594 313.378906 C 230.921875 313.617188 229.617188 313.386719 231.628906 313.820312 C 224.191406 315.953125 218.046875 317.863281 210.21875 318.105469 C 215.246094 317.078125 219.8125 314.4375 224.902344 313.636719 C 225.820312 313.492188 226.753906 313.464844 227.683594 313.378906 Z M 227.683594 313.378906 " fill-opacity="1" fill-rule="nonzero"/><path fill="#03fa6e" d="M 269.691406 299.050781 L 269.941406 299.082031 C 269.761719 299.601562 269.777344 299.976562 269.359375 300.386719 C 244.4375 309.304688 256.871094 304.871094 232.050781 313.691406 L 232.058594 313.929688 L 232.035156 313.90625 L 231.628906 313.820312 L 231.871094 313.753906 L 232.050781 313.691406 C 232.042969 313.390625 232.019531 312.679688 232.023438 312.59375 C 232.03125 312.519531 232.085938 312.457031 232.117188 312.390625 C 244.222656 307.183594 256.445312 302.296875 269.257812 299.054688 Z M 269.691406 299.050781 " fill-opacity="1" fill-rule="nonzero"/><path fill="#03fa6e" d="M 263.566406 308.652344 L 263.578125 308.65625 L 266.691406 308.761719 C 268.90625 308.816406 267.296875 308.777344 271.523438 308.902344 L 271.625 308.90625 C 271.625 308.90625 271.640625 308.90625 271.640625 308.90625 L 271.523438 308.902344 C 267.308594 308.785156 268.921875 308.839844 266.691406 308.761719 L 263.601562 308.6875 Z M 263.566406 308.652344 " fill-opacity="1" fill-rule="nonzero"/><path fill="#03fa6e" d="M 277.757812 303.34375 C 277.789062 303.371094 277.777344 303.363281 277.796875 303.378906 L 277.804688 303.378906 L 277.886719 303.414062 L 277.839844 303.417969 C 277.84375 303.425781 277.84375 303.421875 277.835938 303.417969 L 277.832031 303.417969 L 277.75 303.460938 C 277.757812 304.890625 276.824219 305.757812 275.644531 306.378906 C 274.226562 307.074219 272.957031 308.019531 271.648438 308.894531 L 271.640625 308.90625 L 271.625 308.90625 L 271.648438 308.894531 C 272.011719 307.976562 272.144531 306.945312 272.875 306.234375 C 274.375 305.101562 276.085938 304.308594 277.75 303.460938 Z M 277.800781 303.382812 L 277.839844 303.417969 Z M 277.800781 303.382812 " fill-opacity="1" fill-rule="nonzero"/><path fill="#03fa6e" d="M 300.148438 296.5625 C 300.074219 297.148438 300 297.734375 299.925781 298.320312 L 299.894531 298.328125 C 296.433594 298.6875 298.09375 298.515625 294.910156 298.839844 L 294.683594 299.082031 L 294.136719 299.222656 C 291.761719 301.855469 288.414062 302.796875 284.980469 302.855469 L 284.84375 303.039062 L 284.707031 302.910156 C 284.816406 303.015625 284.773438 302.976562 284.832031 303.03125 L 284.398438 303.054688 C 282.335938 304.726562 280.152344 304.378906 277.886719 303.414062 C 282.335938 303.144531 280.167969 303.265625 284.398438 303.054688 L 284.65625 302.859375 L 284.980469 302.855469 C 285.425781 302.226562 285.738281 301.722656 286.402344 301.316406 C 291.71875 299.804688 289.140625 300.5 294.136719 299.222656 L 294.476562 298.878906 C 294.558594 298.957031 294.5 298.898438 294.648438 299.046875 C 294.503906 298.902344 294.558594 298.960938 294.484375 298.882812 L 294.910156 298.839844 C 296.230469 297.296875 298.214844 298.035156 299.894531 298.316406 Z M 300.148438 296.5625 " fill-opacity="1" fill-rule="nonzero"/><path fill="#03fa6e" d="M 296.15625 303.234375 C 296.359375 303.230469 296.566406 303.335938 296.769531 303.398438 C 296.703125 303.542969 296.652344 303.796875 296.570312 303.808594 C 296.378906 303.828125 296.175781 303.734375 295.976562 303.683594 C 296.035156 303.527344 296.09375 303.234375 296.15625 303.234375 Z M 296.15625 303.234375 " fill-opacity="1" fill-rule="nonzero"/><path fill="#03fa6e" d="M 269.988281 298.941406 L 270.070312 299.03125 C 270.007812 298.960938 270.03125 298.988281 269.992188 298.945312 L 270.335938 298.960938 L 270.136719 299.109375 L 269.941406 299.082031 Z M 269.988281 298.941406 " fill-opacity="1" fill-rule="nonzero"/><path fill="#03fa6e" d="M 273.980469 296.222656 C 273.988281 296.230469 273.984375 296.226562 273.988281 296.234375 C 273.988281 296.226562 273.988281 296.230469 273.984375 296.226562 L 274.015625 296.234375 L 273.992188 296.234375 L 273.976562 296.246094 C 273.628906 299.28125 272.976562 299.089844 270.335938 298.960938 C 272.699219 297.195312 271.484375 298.101562 273.976562 296.246094 Z M 273.980469 296.222656 " fill-opacity="1" fill-rule="nonzero"/><path fill="#03fa6e" d="M 281.261719 296.015625 C 281.261719 296.015625 281.445312 296.171875 281.425781 296.15625 L 280.980469 296.164062 C 278.710938 297.488281 276.363281 297.011719 274.015625 296.234375 C 278.792969 296.179688 276.472656 296.203125 280.980469 296.164062 Z M 281.261719 296.015625 " fill-opacity="1" fill-rule="nonzero"/><path fill="#03fa6e" d="M 303.617188 292.929688 L 304.886719 292.96875 C 304.480469 293.171875 304.769531 293.03125 304.007812 293.367188 C 303.941406 293.390625 303.75 293.082031 303.617188 292.929688 Z M 303.617188 292.929688 " fill-opacity="1" fill-rule="nonzero"/><path fill="#03fa6e" d="M 26.839844 130.4375 L 26.796875 131.867188 C 26.445312 135.28125 25.261719 137.867188 27.230469 140.921875 C 27.554688 141.359375 27.070312 142.566406 26.714844 143.296875 C 24.632812 147.574219 24.109375 152.050781 24.316406 156.78125 C 24.542969 162.050781 23.902344 167.292969 22.363281 172.386719 C 22.023438 173.496094 21.511719 174.605469 21.441406 175.742188 C 21.253906 178.667969 20.855469 181.667969 21.304688 184.523438 C 21.851562 187.976562 17.175781 188.316406 17.734375 191.917969 C 18.128906 194.449219 15.0625 197.292969 18.195312 199.832031 C 17.863281 204.417969 17.53125 209.007812 17.132812 214.480469 C 14.652344 211.4375 17.0625 208.46875 14.894531 205.679688 C 14.011719 207.683594 14.101562 209.554688 13.730469 211.261719 C 13.296875 213.261719 12.699219 215.269531 12.597656 217.296875 C 11.523438 238.679688 11.730469 260.066406 12.527344 281.453125 C 12.578125 282.855469 13.386719 284.214844 13.601562 285.632812 C 13.894531 287.601562 13.960938 289.601562 14.121094 291.585938 C 8.84375 285.324219 11.242188 278.042969 10.015625 271.183594 C 9.246094 271.667969 8.394531 271.980469 8.414062 272.226562 C 8.949219 279.335938 1.839844 284.886719 4.300781 292.371094 C 4.375 292.597656 4.308594 292.875 4.308594 293.125 C 1.285156 293.71875 0.0195312 293.113281 0.28125 291.125 C 1.722656 280.074219 3.289062 269.035156 4.632812 257.96875 C 5.480469 250.992188 5.8125 243.949219 6.730469 236.980469 C 8.109375 226.519531 9.703125 216.078125 11.386719 205.660156 C 12.554688 198.425781 13.847656 191.203125 15.421875 184.054688 C 16.617188 178.632812 18.226562 173.296875 19.871094 167.988281 C 20.949219 164.511719 20.984375 161.011719 20.414062 157.546875 C 19.777344 153.679688 19.898438 149.972656 21.15625 146.269531 C 22.738281 141.617188 22.550781 137.117188 19.007812 132.507812 C 21.617188 131.820312 24.230469 131.128906 26.839844 130.4375 Z M 26.839844 130.4375 " fill-opacity="1" fill-rule="nonzero"/><path fill="#03fa6e" d="M 305.386719 292.71875 L 305.390625 292.722656 L 305.585938 292.972656 L 305.582031 292.988281 L 305.585938 292.988281 L 305.582031 292.988281 L 304.886719 292.96875 Z M 305.386719 292.71875 " fill-opacity="1" fill-rule="nonzero"/><path fill="#03fa6e" d="M 18.410156 245.703125 C 18.59375 245.789062 18.78125 245.871094 18.964844 245.953125 C 18.703125 246.121094 18.441406 246.289062 18.179688 246.453125 C 18.253906 246.203125 18.332031 245.953125 18.410156 245.703125 Z M 18.410156 245.703125 " fill-opacity="1" fill-rule="nonzero"/><path fill="#03fa6e" d="M 20.671875 225.597656 L 20.671875 228.144531 C 20.453125 227.667969 20.1875 227.199219 20.042969 226.699219 C 19.996094 226.535156 20.269531 226.273438 20.671875 225.597656 Z M 20.671875 225.597656 " fill-opacity="1" fill-rule="nonzero"/><path fill="#03fa6e" d="M 86.722656 213.035156 C 87.175781 213.164062 87.589844 213.429688 88.019531 213.644531 C 87.84375 213.847656 87.605469 214.25 87.511719 214.21875 C 87.039062 214.058594 86.605469 213.785156 86.160156 213.550781 C 86.351562 213.371094 86.59375 213 86.722656 213.035156 Z M 86.722656 213.035156 " fill-opacity="1" fill-rule="nonzero"/><path fill="#03fa6e" d="M 21.777344 206.921875 C 21.960938 206.933594 22.144531 206.945312 22.332031 206.953125 L 22.332031 212.671875 C 22.164062 212.707031 21.996094 212.746094 21.832031 212.785156 C 21.707031 211.902344 21.480469 211.019531 21.480469 210.136719 C 21.480469 209.066406 21.667969 207.996094 21.777344 206.921875 Z M 21.777344 206.921875 " fill-opacity="1" fill-rule="nonzero"/><path fill="#03fa6e" d="M 225.617188 170.59375 C 225.75 170.589844 225.898438 170.953125 226.039062 171.148438 C 225.582031 171.347656 225.140625 171.625 224.667969 171.691406 C 224.523438 171.710938 224.296875 171.140625 224.109375 170.84375 C 224.609375 170.75 225.113281 170.613281 225.617188 170.59375 Z M 225.617188 170.59375 " fill-opacity="1" fill-rule="nonzero"/></svg>