<svg width="90" height="53" viewBox="0 0 90 53" fill="none" xmlns="http://www.w3.org/2000/svg">
<path d="M1.224 30.504C1.352 33.4907 1.48 36.4773 1.608 39.464C1.77867 42.4507 1.90667 45.4373 1.992 48.424V48.744L1.8 48.552V48.104C1.58667 44.264 1.37333 40.488 1.16 36.776C0.989334 33.0213 0.904 29.224 0.904 25.384V18.152C0.904 17 0.904 15.8693 0.904 14.76C0.946667 13.608 0.989333 12.456 1.032 11.304C1.07467 9.98133 1.18133 8.70133 1.352 7.464C1.52267 6.184 1.608 4.86133 1.608 3.496H1.864C2.16267 3.496 2.41867 3.47467 2.632 3.432C2.84533 3.38933 3.016 3.368 3.144 3.368C3.57067 3.368 3.82667 3.64533 3.912 4.2C3.99733 4.75466 4.04 5.18133 4.04 5.48L3.976 6.824H4.744C4.78667 6.568 4.85067 6.16267 4.936 5.608C5.064 5.01066 5.23467 4.41333 5.448 3.816C5.66133 3.21866 5.896 2.70667 6.152 2.28C6.45067 1.81066 6.792 1.576 7.176 1.576C7.60267 1.576 7.92267 1.96 8.136 2.728C8.392 3.496 8.584 4.41333 8.712 5.48C8.84 6.504 8.904 7.57066 8.904 8.68C8.94667 9.74666 8.968 10.6 8.968 11.24V12.008C8.968 16.9147 9.01067 21.8213 9.096 26.728C9.18133 31.6347 9.224 36.5413 9.224 41.448C9.224 41.832 9.20267 42.2373 9.16 42.664C9.16 43.048 9.16 43.432 9.16 43.816C9.16 44.0293 9.16 44.2213 9.16 44.392C9.20267 44.5627 9.224 44.7547 9.224 44.968H9.864C10.248 44.968 10.632 44.9893 11.016 45.032C11.4 45.032 11.784 45.032 12.168 45.032C14.856 45.032 17.5013 44.904 20.104 44.648C22.7493 44.3493 25.416 44.2 28.104 44.2H28.36C28.7867 44.2 29.2987 44.264 29.896 44.392C30.4933 44.4773 30.792 44.776 30.792 45.288V45.416C28.5307 45.416 26.312 45.5013 24.136 45.672C21.96 45.8 19.7413 45.9707 17.48 46.184C19.144 46.0987 20.7867 45.992 22.408 45.864C24.072 45.736 25.736 45.672 27.4 45.672C27.9547 45.672 28.488 45.6933 29 45.736C29.512 45.736 30.0453 45.7573 30.6 45.8L30.344 46.568C30.6 46.6107 30.9413 46.6747 31.368 46.76C31.7947 46.8027 32.2 46.9093 32.584 47.08C33.0107 47.2507 33.3733 47.464 33.672 47.72C33.9707 47.9333 34.12 48.2107 34.12 48.552C34.12 49.1493 33.8427 49.5547 33.288 49.768C32.7333 50.024 32.2213 50.2587 31.752 50.472C31.112 50.2587 30.4293 50.1307 29.704 50.088C29.0213 50.088 28.3387 50.088 27.656 50.088C26.1627 50.088 24.6907 50.152 23.24 50.28C21.8747 50.408 20.488 50.536 19.08 50.664C20.104 50.6213 21.0853 50.5787 22.024 50.536C23.0907 50.4933 24.1573 50.472 25.224 50.472C26.1627 50.472 27.08 50.4933 27.976 50.536C28.9147 50.5787 29.8533 50.6853 30.792 50.856C30.024 51.1973 29.064 51.4533 27.912 51.624C26.8027 51.7947 25.6293 51.9227 24.392 52.008C23.1973 52.0933 22.0027 52.136 20.808 52.136C19.6133 52.1787 18.568 52.2213 17.672 52.264L17.096 51.624C16.1573 51.8373 15.2187 51.9653 14.28 52.008C13.3413 52.0933 12.3813 52.136 11.4 52.136C10.376 52.136 9.352 52.0933 8.328 52.008C7.304 51.9227 6.30133 51.7947 5.32 51.624C4.85067 51.112 4.38133 50.6 3.912 50.088C3.44267 49.6187 2.93067 49.1493 2.376 48.68C2.376 45.608 2.29067 42.5787 2.12 39.592C1.992 36.6053 1.82133 33.576 1.608 30.504H1.224ZM14.856 50.984C13.832 51.0267 12.7653 51.048 11.656 51.048C10.3333 51.048 9.096 51.0053 7.944 50.92C6.792 50.8347 5.98133 50.6853 5.512 50.472L3.592 48.616L3.016 41.064V42.472C3.016 43.4533 3.08 44.4347 3.208 45.416C3.336 46.3973 3.4 47.3787 3.4 48.36V48.744C3.74133 49.0853 4.06133 49.4267 4.36 49.768C4.70133 50.1093 5.02133 50.472 5.32 50.856H5.768C6.70667 50.856 7.624 50.8987 8.52 50.984C9.45867 51.112 10.3973 51.176 11.336 51.176C12.3173 51.176 13.2773 51.1333 14.216 51.048C14.5573 51.048 14.92 51.0267 15.304 50.984H14.856ZM9.416 46.504C9.62933 46.5467 9.84267 46.5893 10.056 46.632C10.312 46.632 10.568 46.632 10.824 46.632C11.9333 46.632 13.0427 46.6107 14.152 46.568C15.2613 46.5253 16.3707 46.3973 17.48 46.184C16.1147 46.2693 14.7707 46.312 13.448 46.312C12.1253 46.312 10.7813 46.3333 9.416 46.376V46.504ZM5.128 52.072C5.85333 52.2853 6.6 52.4133 7.368 52.456C8.17867 52.5413 9.01067 52.584 9.864 52.584C10.376 52.584 10.8667 52.5627 11.336 52.52C11.7627 52.52 12.168 52.52 12.552 52.52C12.296 52.5627 11.9973 52.584 11.656 52.584C11.3147 52.6267 10.9733 52.648 10.632 52.648H9.352C8.84 52.648 8.30667 52.6267 7.752 52.584C7.24 52.5413 6.728 52.4987 6.216 52.456C5.74667 52.4133 5.40533 52.3493 5.192 52.264C5.064 52.136 4.85067 51.9013 4.552 51.56C4.25333 51.2613 3.93333 50.9413 3.592 50.6C3.25067 50.2587 2.93067 49.9173 2.632 49.576C2.376 49.2773 2.22667 49.0853 2.184 49L5.128 52.072ZM7.752 46.248L6.344 45.992C6.6 46.0773 6.984 46.248 7.496 46.504C8.008 46.7173 8.392 46.8453 8.648 46.888L8.456 46.184L7.752 46.248ZM57.741 25.192L57.613 25C57.613 24.488 57.5063 23.9333 57.293 23.336C57.1223 22.7387 56.909 22.1413 56.653 21.544C56.397 20.9467 56.0983 20.3707 55.757 19.816C55.4583 19.2187 55.181 18.664 54.925 18.152L54.477 17.896C55.0317 19.2187 55.6077 20.4133 56.205 21.48C56.8023 22.5467 57.101 23.6773 57.101 24.872L57.421 25.256L56.845 25V24.616C56.077 23.1227 55.3303 21.5013 54.605 19.752C53.9223 17.96 53.2183 16.3173 52.493 14.824C52.0663 17.6827 51.533 20.5413 50.893 23.4C50.253 26.2587 49.4423 29.032 48.461 31.72C47.6077 34.024 46.5837 36.2427 45.389 38.376C44.1943 40.4667 43.1917 42.6853 42.381 45.032L41.869 44.648L41.165 44.776C40.781 44.6907 40.589 44.4347 40.589 44.008C40.589 43.6667 40.653 43.2613 40.781 42.792C40.909 42.28 41.0583 41.768 41.229 41.256C41.4423 40.744 41.6557 40.2533 41.869 39.784C42.0823 39.272 42.253 38.8667 42.381 38.568L41.805 38.376C41.677 38.632 41.357 39.208 40.845 40.104C40.3757 41 39.8423 41.9173 39.245 42.856C38.6903 43.7947 38.1357 44.648 37.581 45.416C37.0263 46.184 36.5997 46.568 36.301 46.568C36.0877 46.44 35.9383 46.248 35.853 45.992C35.7677 45.6933 35.725 45.4373 35.725 45.224C35.725 43.9867 36.0023 42.3867 36.557 40.424C37.1543 38.4613 37.837 36.4347 38.605 34.344C39.373 32.2107 40.141 30.1413 40.909 28.136C41.7197 26.1307 42.3383 24.4453 42.765 23.08C43.149 21.8853 43.4903 20.6053 43.789 19.24C44.1303 17.832 44.4077 16.424 44.621 15.016C44.877 13.5653 45.0903 12.136 45.261 10.728C45.4317 9.32 45.581 7.976 45.709 6.696C46.4343 6.14133 47.4157 5.672 48.653 5.288C49.933 4.904 51.1063 4.49866 52.173 4.072C54.477 5.94933 56.461 8.104 58.125 10.536C59.789 12.968 61.2397 15.72 62.477 18.792C63.245 17.64 63.949 16.36 64.589 14.952C65.2717 13.544 65.8903 12.0933 66.445 10.6C66.9997 9.064 67.533 7.54933 68.045 6.056C68.557 4.56267 69.069 3.176 69.581 1.896C70.6477 1.55466 71.757 1.29867 72.909 1.128C74.1037 0.957331 75.277 0.765331 76.429 0.551998C77.581 2.94133 78.669 5.224 79.693 7.4C80.717 9.576 81.6557 11.7733 82.509 13.992C83.405 16.168 84.1943 18.408 84.877 20.712C85.6023 23.016 86.2423 25.4907 86.797 28.136C87.053 29.5013 87.373 30.888 87.757 32.296C88.141 33.6613 88.4823 35.048 88.781 36.456C89.1223 37.864 89.3997 39.272 89.613 40.68C89.869 42.088 89.997 43.496 89.997 44.904C89.997 45.032 89.933 45.2027 89.805 45.416C89.7197 45.6293 89.5063 45.7573 89.165 45.8C88.4823 41.7893 87.7357 37.8213 86.925 33.896C86.1143 30.056 85.1117 26.2373 83.917 22.44C84.9837 26.2373 85.901 30.0133 86.669 33.768C87.4797 37.6507 88.1837 41.5973 88.781 45.608L87.885 46.12C87.9703 46.632 88.077 47.1653 88.205 47.72C88.333 48.2747 88.397 48.808 88.397 49.32C88.397 49.448 88.3757 49.704 88.333 50.088C88.333 50.5147 88.2903 50.9413 88.205 51.368C88.1623 51.7947 88.0557 52.1573 87.885 52.456C87.757 52.7973 87.565 52.968 87.309 52.968C87.053 52.968 86.7757 52.7973 86.477 52.456C86.221 52.1573 85.965 51.7733 85.709 51.304C85.4957 50.8773 85.2823 50.4507 85.069 50.024C84.8983 49.64 84.7703 49.3413 84.685 49.128C84.429 46.312 83.981 43.176 83.341 39.72C82.7437 36.2213 82.0183 32.7013 81.165 29.16C80.3117 25.576 79.3303 22.12 78.221 18.792C77.1543 15.4213 76.0237 12.456 74.829 9.896L74.765 10.216C76.1303 13.1173 77.3037 16.104 78.285 19.176C79.2663 22.2053 80.1197 25.2987 80.845 28.456C81.5703 31.5707 82.189 34.728 82.701 37.928C83.213 41.0853 83.661 44.2213 84.045 47.336C83.149 45.3733 82.4237 43.3893 81.869 41.384C81.357 39.336 80.8877 37.3093 80.461 35.304C80.077 33.256 79.6717 31.208 79.245 29.16C78.861 27.112 78.3703 25.0427 77.773 22.952L78.221 21.672C77.6237 19.9227 77.005 18.1947 76.365 16.488C75.7677 14.7813 75.0637 13.1173 74.253 11.496L73.997 12.136C73.5277 13.416 72.9303 14.9093 72.205 16.616C71.4797 18.3227 70.6263 19.9867 69.645 21.608C68.6637 23.2293 67.5543 24.68 66.317 25.96C65.1223 27.24 63.7997 28.0933 62.349 28.52C61.453 27.9653 60.5357 27.4533 59.597 26.984C58.701 26.472 57.7837 25.96 56.845 25.448V25.064L59.405 26.472C60.2583 26.9413 61.1117 27.432 61.965 27.944L62.477 27.816C64.3117 26.7493 65.7837 25.6827 66.893 24.616C68.045 23.5493 69.0263 22.376 69.837 21.096C70.6477 19.816 71.3517 18.3867 71.949 16.808C72.589 15.1867 73.3143 13.352 74.125 11.304L73.869 10.728L73.613 11.304L72.525 13.8C72.0983 14.824 71.565 15.9333 70.925 17.128C70.3277 18.28 69.645 19.4747 68.877 20.712C68.1517 21.9067 67.405 23.016 66.637 24.04C65.869 25.0213 65.0797 25.832 64.269 26.472C63.4583 27.0693 62.6903 27.368 61.965 27.368L57.741 25.192ZM79.757 9.704C79.6717 9.448 79.5223 9.10667 79.309 8.68C79.0957 8.21066 78.861 7.74133 78.605 7.272C78.3917 6.80266 78.1783 6.35466 77.965 5.928C77.7517 5.45867 77.581 5.11733 77.453 4.904L78.157 6.888L79.565 9.832L79.757 9.704ZM73.037 9.96L70.861 15.72C71.2877 14.824 71.6717 13.928 72.013 13.032C72.397 12.136 72.7597 11.24 73.101 10.344L73.037 9.96ZM71.373 4.072L72.205 6.184L72.525 6.12L71.757 4.072H71.373ZM46.349 7.528L46.221 9.448C46.221 9.87466 46.1783 10.4507 46.093 11.176L46.797 7.4L46.349 7.528ZM68.237 8.872L69.901 4.904H69.645L68.237 8.872ZM77.261 4.52L75.789 2.088L75.917 2.792L77.261 4.52ZM74.509 9.192L74.381 9.448L74.637 9.96L74.701 9.64L74.509 9.192Z" fill="#1AAF32"/>
</svg>
