<svg xmlns="http://www.w3.org/2000/svg" xmlns:xlink="http://www.w3.org/1999/xlink" width="500" zoomAndPan="magnify" viewBox="0 0 375 374.999991" height="500" preserveAspectRatio="xMidYMid meet" version="1.0"><defs><clipPath id="7e8f1a5fca"><path d="M 54 8 L 321 8 L 321 366 L 54 366 Z M 54 8 " clip-rule="nonzero"/></clipPath><clipPath id="0b298ec8f6"><path d="M 187.496094 5.871094 L 433.039062 251.414062 L 187.496094 496.957031 L -58.046875 251.414062 Z M 187.496094 5.871094 " clip-rule="nonzero"/></clipPath><clipPath id="81b413f025"><path d="M 187.496094 5.871094 L 433.039062 251.414062 L 187.496094 496.957031 L -58.046875 251.414062 Z M 187.496094 5.871094 " clip-rule="nonzero"/></clipPath><clipPath id="ec45dbe69b"><path d="M 320.15625 362.402344 L 285.972656 224.214844 C 285.808594 223.558594 285.417969 222.988281 284.855469 222.609375 L 258.085938 204.234375 C 254.859375 140.347656 245.570312 84.855469 218.984375 43.546875 C 218.863281 43.25 218.699219 42.976562 218.472656 42.734375 C 210.402344 30.359375 200.785156 19.246094 189.257812 9.609375 C 188.238281 8.753906 186.75 8.753906 185.730469 9.605469 C 174.199219 19.246094 164.585938 30.359375 156.515625 42.738281 C 156.300781 42.96875 156.144531 43.234375 156.023438 43.519531 C 129.425781 84.828125 120.132812 140.332031 116.902344 204.230469 L 90.128906 222.609375 C 89.574219 222.988281 89.175781 223.558594 89.011719 224.214844 L 54.828125 362.398438 C 54.597656 363.339844 54.878906 364.328125 55.554688 365.003906 C 55.605469 365.050781 55.65625 365.101562 55.710938 365.148438 C 56.5 365.824219 57.601562 365.996094 58.5625 365.597656 L 126.769531 337.050781 L 126.769531 348.339844 C 126.769531 349.097656 127.074219 349.785156 127.574219 350.28125 C 128.070312 350.78125 128.757812 351.085938 129.515625 351.085938 L 178.410156 351.085938 L 178.410156 363.0625 C 178.410156 363.820312 178.71875 364.507812 179.21875 365.007812 C 179.714844 365.503906 180.402344 365.8125 181.160156 365.8125 L 193.828125 365.8125 C 195.347656 365.8125 196.578125 364.582031 196.578125 363.0625 L 196.578125 351.085938 L 245.472656 351.085938 C 246.992188 351.085938 248.222656 349.859375 248.222656 348.339844 L 248.222656 337.050781 L 316.425781 365.597656 C 317.386719 365.996094 318.488281 365.820312 319.28125 365.148438 C 320.066406 364.472656 320.40625 363.410156 320.15625 362.402344 Z M 196.574219 205.730469 C 196.574219 204.210938 195.347656 202.980469 193.828125 202.980469 L 181.160156 202.980469 C 179.640625 202.980469 178.410156 204.210938 178.410156 205.730469 L 178.410156 330.171875 L 130.695312 330.171875 L 125.167969 324.367188 C 122.265625 321.320312 120.667969 317.320312 120.667969 313.101562 C 120.660156 206.457031 120.695312 111.789062 158.746094 49.578125 C 159.152344 50.046875 159.59375 50.53125 160.109375 51.042969 C 164.5625 55.5 173.074219 61.191406 187.496094 61.191406 C 203.566406 61.191406 212.289062 54.125 216.25 49.582031 C 254.292969 111.792969 254.328125 206.457031 254.324219 313.097656 C 254.320312 317.316406 252.722656 321.316406 249.824219 324.363281 L 244.292969 330.167969 L 196.574219 330.171875 Z M 187.496094 15.324219 C 197.464844 23.953125 205.921875 33.792969 213.140625 44.679688 C 210.773438 47.886719 203.378906 55.695312 187.496094 55.695312 C 171.574219 55.695312 164.21875 47.925781 161.84375 44.6875 C 169.0625 33.796875 177.519531 23.953125 187.496094 15.324219 Z M 61.484375 358.414062 L 94.101562 226.550781 L 116.582031 211.121094 C 115.179688 243.324219 115.167969 277.542969 115.171875 313.097656 C 115.175781 318.734375 117.308594 324.082031 121.1875 328.152344 L 124.777344 331.917969 Z M 132.265625 345.589844 L 132.265625 335.667969 L 178.410156 335.667969 L 178.410156 345.585938 Z M 183.90625 360.3125 L 183.910156 208.480469 L 191.078125 208.480469 L 191.078125 360.3125 Z M 196.578125 345.589844 L 196.578125 335.671875 L 242.722656 335.671875 L 242.722656 345.589844 Z M 250.214844 331.921875 L 253.804688 328.15625 C 257.679688 324.085938 259.816406 318.738281 259.816406 313.101562 C 259.820312 277.546875 259.8125 243.328125 258.410156 211.125 L 280.886719 226.550781 L 313.503906 358.417969 Z M 216.230469 100.167969 C 208.554688 92.492188 198.347656 88.265625 187.492188 88.265625 C 176.636719 88.265625 166.433594 92.492188 158.753906 100.167969 C 151.078125 107.84375 146.851562 118.050781 146.851562 128.90625 C 146.851562 140.109375 151.410156 150.269531 158.769531 157.628906 C 166.128906 164.988281 176.289062 169.546875 187.492188 169.546875 C 209.902344 169.542969 228.132812 151.316406 228.132812 128.90625 C 228.136719 118.050781 223.90625 107.84375 216.230469 100.167969 Z M 187.492188 164.046875 C 168.117188 164.046875 152.351562 148.28125 152.351562 128.90625 C 152.351562 119.519531 156.007812 110.695312 162.644531 104.058594 C 169.28125 97.417969 178.105469 93.765625 187.492188 93.765625 C 196.878906 93.765625 205.707031 97.417969 212.34375 104.058594 C 218.980469 110.695312 222.636719 119.519531 222.636719 128.90625 C 222.636719 148.285156 206.871094 164.046875 187.492188 164.046875 Z M 187.492188 99.65625 C 171.363281 99.65625 158.242188 112.777344 158.242188 128.90625 C 158.242188 136.972656 161.523438 144.28125 166.820312 149.582031 C 172.117188 154.878906 179.429688 158.15625 187.492188 158.15625 C 203.621094 158.15625 216.746094 145.035156 216.746094 128.90625 C 216.746094 112.777344 203.625 99.65625 187.492188 99.65625 Z M 187.496094 152.65625 C 174.398438 152.65625 163.742188 142 163.742188 128.90625 C 163.742188 115.808594 174.398438 105.152344 187.496094 105.152344 C 194.042969 105.152344 199.980469 107.816406 204.28125 112.117188 C 208.585938 116.417969 211.25 122.355469 211.25 128.90625 C 211.246094 142.003906 200.589844 152.65625 187.496094 152.65625 Z M 187.496094 152.65625 " clip-rule="nonzero"/></clipPath><linearGradient x1="62.998001" gradientTransform="matrix(1.944124, 1.944124, -1.944124, 1.944124, 187.495, 7.0394)" y1="-33.742502" x2="62.998001" gradientUnits="userSpaceOnUse" y2="126.497504" id="58e2c7ee71"><stop stop-opacity="1" stop-color="rgb(1.199341%, 97.999573%, 43.099976%)" offset="0"/><stop stop-opacity="1" stop-color="rgb(1.199341%, 97.999573%, 43.099976%)" offset="0.125"/><stop stop-opacity="1" stop-color="rgb(1.199341%, 97.999573%, 43.099976%)" offset="0.1875"/><stop stop-opacity="1" stop-color="rgb(1.193237%, 98.008728%, 43.147278%)" offset="0.21875"/><stop stop-opacity="1" stop-color="rgb(1.16272%, 98.059082%, 43.374634%)" offset="0.25"/><stop stop-opacity="1" stop-color="rgb(1.113892%, 98.139954%, 43.736267%)" offset="0.28125"/><stop stop-opacity="1" stop-color="rgb(1.066589%, 98.219299%, 44.0979%)" offset="0.3125"/><stop stop-opacity="1" stop-color="rgb(1.019287%, 98.298645%, 44.459534%)" offset="0.34375"/><stop stop-opacity="1" stop-color="rgb(0.971985%, 98.377991%, 44.821167%)" offset="0.375"/><stop stop-opacity="1" stop-color="rgb(0.923157%, 98.457336%, 45.1828%)" offset="0.40625"/><stop stop-opacity="1" stop-color="rgb(0.875854%, 98.536682%, 45.544434%)" offset="0.4375"/><stop stop-opacity="1" stop-color="rgb(0.828552%, 98.616028%, 45.906067%)" offset="0.46875"/><stop stop-opacity="1" stop-color="rgb(0.78125%, 98.695374%, 46.2677%)" offset="0.5"/><stop stop-opacity="1" stop-color="rgb(0.732422%, 98.774719%, 46.629333%)" offset="0.53125"/><stop stop-opacity="1" stop-color="rgb(0.68512%, 98.854065%, 46.990967%)" offset="0.5625"/><stop stop-opacity="1" stop-color="rgb(0.637817%, 98.933411%, 47.3526%)" offset="0.59375"/><stop stop-opacity="1" stop-color="rgb(0.590515%, 99.014282%, 47.714233%)" offset="0.625"/><stop stop-opacity="1" stop-color="rgb(0.541687%, 99.093628%, 48.075867%)" offset="0.65625"/><stop stop-opacity="1" stop-color="rgb(0.494385%, 99.172974%, 48.4375%)" offset="0.6875"/><stop stop-opacity="1" stop-color="rgb(0.447083%, 99.252319%, 48.799133%)" offset="0.71875"/><stop stop-opacity="1" stop-color="rgb(0.39978%, 99.331665%, 49.160767%)" offset="0.75"/><stop stop-opacity="1" stop-color="rgb(0.350952%, 99.411011%, 49.5224%)" offset="0.78125"/><stop stop-opacity="1" stop-color="rgb(0.30365%, 99.490356%, 49.884033%)" offset="0.8125"/><stop stop-opacity="1" stop-color="rgb(0.256348%, 99.569702%, 50.245667%)" offset="0.84375"/><stop stop-opacity="1" stop-color="rgb(0.209045%, 99.649048%, 50.6073%)" offset="0.875"/><stop stop-opacity="1" stop-color="rgb(0.160217%, 99.728394%, 50.968933%)" offset="0.90625"/><stop stop-opacity="1" stop-color="rgb(0.112915%, 99.807739%, 51.330566%)" offset="0.9375"/><stop stop-opacity="1" stop-color="rgb(0.0656128%, 99.888611%, 51.6922%)" offset="0.96875"/><stop stop-opacity="1" stop-color="rgb(0.0213623%, 99.963379%, 52.035522%)" offset="1"/></linearGradient></defs><g clip-path="url(#7e8f1a5fca)"><g clip-path="url(#0b298ec8f6)"><g clip-path="url(#81b413f025)"><g clip-path="url(#ec45dbe69b)"><path fill="url(#58e2c7ee71)" d="M 187.503906 -124.152344 L -124.023438 187.375 L 187.503906 498.902344 L 499.027344 187.375 Z M 187.503906 -124.152344 " fill-rule="nonzero"/></g></g></g></g></svg>