<svg xmlns="http://www.w3.org/2000/svg" xmlns:xlink="http://www.w3.org/1999/xlink" width="500" zoomAndPan="magnify" viewBox="0 0 375 374.999991" height="500" preserveAspectRatio="xMidYMid meet" version="1.0"><defs><g/><clipPath id="dc871167a4"><path d="M 16.09375 3.136719 L 358.84375 3.136719 L 358.84375 372.136719 L 16.09375 372.136719 Z M 16.09375 3.136719 " clip-rule="nonzero"/></clipPath></defs><g clip-path="url(#dc871167a4)"><path fill="#03fa6e" d="M 213.242188 294.910156 C 211.078125 294.910156 209.035156 295.449219 207.238281 296.390625 L 188.390625 288.402344 C 186.609375 287.648438 184.601562 287.65625 182.828125 288.425781 L 37.886719 351.246094 L 43.371094 339.359375 C 49.882812 338.699219 54.96875 333.191406 54.96875 326.5 C 54.96875 319.359375 49.1875 313.574219 42.054688 313.574219 C 34.921875 313.574219 29.140625 319.359375 29.140625 326.5 C 29.140625 328.808594 29.75 330.980469 30.8125 332.859375 L 17.308594 362.125 C 16.082031 364.785156 16.621094 367.929688 18.667969 370.027344 C 20.023438 371.417969 21.859375 372.160156 23.722656 372.160156 C 24.667969 372.160156 25.625 371.964844 26.527344 371.574219 L 185.667969 302.601562 L 200.371094 308.832031 C 200.878906 315.507812 206.445312 320.765625 213.242188 320.765625 C 220.378906 320.765625 226.160156 314.976562 226.160156 307.835938 C 226.160156 300.699219 220.378906 294.910156 213.242188 294.910156 Z M 229.777344 85.101562 L 193.859375 7.257812 C 192.707031 4.757812 190.203125 3.152344 187.449219 3.152344 C 184.695312 3.152344 182.195312 4.757812 181.039062 7.257812 L 89.539062 205.574219 C 82.65625 205.855469 77.164062 211.527344 77.164062 218.488281 C 77.164062 225.625 82.945312 231.414062 90.078125 231.414062 C 97.210938 231.414062 102.992188 225.625 102.992188 218.488281 C 102.992188 216.480469 102.539062 214.582031 101.722656 212.886719 L 187.449219 27.082031 L 217.027344 91.1875 C 215.835938 93.148438 215.144531 95.445312 215.144531 97.910156 C 215.144531 105.046875 220.929688 110.835938 228.058594 110.835938 C 235.191406 110.835938 240.976562 105.046875 240.976562 97.910156 C 240.976562 91.355469 236.09375 85.945312 229.777344 85.101562 Z M 356.253906 370.007812 C 354.894531 371.410156 353.054688 372.160156 351.179688 372.160156 C 350.25 372.160156 349.3125 371.972656 348.425781 371.597656 L 304.914062 353.15625 C 302.859375 354.539062 300.378906 355.351562 297.714844 355.351562 C 290.578125 355.351562 284.796875 349.5625 284.796875 342.425781 C 284.796875 335.28125 290.578125 329.492188 297.714844 329.492188 C 304.066406 329.492188 309.339844 334.082031 310.421875 340.132812 L 337.105469 351.445312 L 267.4375 200.445312 C 261.191406 199.53125 256.398438 194.15625 256.398438 187.65625 C 256.398438 180.515625 262.183594 174.726562 269.3125 174.726562 C 276.449219 174.726562 282.230469 180.515625 282.230469 187.65625 C 282.230469 190.175781 281.503906 192.527344 280.261719 194.515625 L 357.589844 362.125 C 358.8125 364.777344 358.28125 367.90625 356.253906 370.007812 " fill-opacity="1" fill-rule="nonzero"/></g><g fill="#03fa6e" fill-opacity="1"><g transform="translate(71.012818, 284.578414)"><g/></g></g><g fill="#ffffff" fill-opacity="1"><g transform="translate(101.407706, 284.578414)"><g><path d="M 83.308594 3.714844 C 126.933594 3.714844 157.332031 -26.453125 157.332031 -67.527344 L 157.332031 -67.761719 C 157.332031 -108.601562 126.933594 -138.539062 83.308594 -138.539062 C 39.679688 -138.539062 9.515625 -108.601562 9.515625 -67.761719 L 9.515625 -67.527344 C 9.515625 -26.453125 39.914062 3.714844 83.308594 3.714844 Z M 83.308594 -29.238281 C 61.261719 -29.238281 46.410156 -45.945312 46.410156 -67.527344 L 46.410156 -67.992188 C 46.410156 -89.339844 61.03125 -105.585938 83.308594 -105.585938 C 105.816406 -105.585938 120.203125 -89.339844 120.203125 -67.992188 L 120.203125 -67.527344 C 120.203125 -45.945312 105.585938 -29.238281 83.308594 -29.238281 Z M 83.308594 -29.238281 "/></g></g></g><g fill="#ffffff" fill-opacity="1"><g transform="translate(259.171649, 284.578414)"><g/></g></g></svg>